<?xml version="1.0" standalone="no"?>
<!DOCTYPE svg PUBLIC "-//W3C//DTD SVG 20010904//EN"
 "http://www.w3.org/TR/2001/REC-SVG-20010904/DTD/svg10.dtd">
<svg version="1.0" xmlns="http://www.w3.org/2000/svg"
 width="97.000000pt" height="91.000000pt" viewBox="0 0 97.000000 91.000000"
 preserveAspectRatio="xMidYMid meet">

<g transform="translate(0.000000,91.000000) scale(0.100000,-0.100000)"
fill="#000000" stroke="none">
<path d="M350 740 l0 -60 50 0 50 0 0 -65 0 -65 -90 0 -90 0 0 69 c0 98 -2
101 -67 101 -46 0 -58 -4 -78 -26 l-25 -27 0 -269 0 -269 24 -24 c33 -33 62
-36 316 -33 l225 3 3 238 2 237 -100 0 -100 0 0 65 0 65 80 0 80 0 0 -33 c0
-40 23 -64 65 -69 l30 -3 3 -238 c2 -204 0 -238 -13 -243 -8 -3 -12 -10 -9
-15 7 -13 164 -12 164 1 0 6 -4 10 -10 10 -6 0 -10 105 -10 295 l0 295 35 0
35 0 0 60 0 60 -285 0 -285 0 0 -60z m80 -32 c0 -5 -13 -8 -30 -8 -29 0 -30 2
-30 43 l1 42 29 -35 c16 -19 30 -38 30 -42z m71 54 c-5 -9 -18 -25 -28 -35
-19 -16 -20 -16 -41 13 -12 16 -22 32 -22 35 0 3 23 5 50 5 45 0 50 -2 41 -18z
m150 1 c-6 -10 -18 -27 -26 -38 -15 -19 -16 -19 -40 10 -13 17 -24 33 -25 38
0 4 23 7 50 7 46 0 50 -2 41 -17z m159 10 c0 -5 -12 -21 -26 -37 -24 -27 -26
-28 -40 -10 -39 51 -38 54 16 54 27 0 50 -3 50 -7z m90 -19 c0 -27 -14 -25
-30 7 -9 16 -7 19 10 19 15 0 20 -7 20 -26z m-335 -52 c-14 -2 -38 -2 -55 0
l-30 3 27 34 26 34 28 -34 28 -34 -24 -3z m155 28 l21 -30 -56 0 -56 0 27 35
c29 38 33 38 64 -5z m150 0 l21 -30 -56 0 -56 0 27 35 c29 38 33 38 64 -5z
m-632 -28 c9 -7 12 -57 10 -218 l-3 -209 -46 -5 c-26 -3 -54 -12 -63 -19 -15
-13 -16 4 -14 205 l3 219 35 17 c38 20 58 22 78 10z m490 -64 c3 -37 3 -38
-33 -38 -29 0 -37 5 -46 27 -15 41 -5 55 38 51 36 -3 38 -5 41 -40z m102 -3
c0 -25 -4 -45 -8 -45 -5 0 -26 15 -47 33 -45 39 -40 57 16 57 l39 0 0 -45z
m-37 -49 l28 -23 -34 -26 c-19 -14 -37 -23 -41 -20 -3 4 -6 26 -6 50 0 50 11
54 53 19z m37 -96 c0 -27 -4 -50 -9 -50 -6 0 -23 11 -38 25 l-28 24 30 25 c17
14 33 25 38 26 4 0 7 -22 7 -50z m-380 -25 l0 -65 -40 0 c-39 0 -40 -1 -40
-35 l0 -35 85 0 85 0 0 35 c0 33 -2 35 -35 35 l-35 0 0 65 0 65 90 0 90 0 0
-220 0 -221 -244 3 c-223 3 -246 5 -265 22 -28 26 -28 82 1 113 16 17 33 23
63 23 22 0 46 5 53 12 8 8 12 54 12 140 l0 128 90 0 90 0 0 -65z m338 -29 l32
-23 -34 -26 c-18 -14 -36 -23 -40 -20 -9 9 -7 93 2 93 4 0 23 -11 40 -24z m37
-144 c-6 -6 -57 29 -62 44 -1 5 12 19 30 32 l32 22 3 -46 c2 -25 1 -49 -3 -52z
m-305 73 c0 -12 -14 -15 -65 -15 -51 0 -65 3 -65 15 0 12 14 15 65 15 51 0 65
-3 65 -15z m265 -80 l30 -25 -30 -25 c-16 -14 -33 -25 -37 -25 -5 0 -8 23 -8
50 0 28 3 50 8 50 4 0 21 -11 37 -25z m45 -101 l0 -57 -32 25 c-18 14 -33 29
-35 34 -2 7 54 54 64 54 2 0 3 -25 3 -56z m-36 -54 c42 -32 35 -45 -21 -38
-24 2 -28 8 -31 36 -4 39 2 40 52 2z"/>
<path d="M300 285 c0 -83 4 -135 10 -135 6 0 10 52 10 135 0 83 -4 135 -10
135 -6 0 -10 -52 -10 -135z"/>
<path d="M600 285 c0 -83 4 -135 10 -135 6 0 10 52 10 135 0 83 -4 135 -10
135 -6 0 -10 -52 -10 -135z"/>
<path d="M370 250 c0 -11 5 -20 10 -20 6 0 10 9 10 20 0 11 -4 20 -10 20 -5 0
-10 -9 -10 -20z"/>
<path d="M410 260 c0 -5 9 -10 20 -10 11 0 20 5 20 10 0 6 -9 10 -20 10 -11 0
-20 -4 -20 -10z"/>
<path d="M460 260 c0 -5 9 -10 20 -10 11 0 20 5 20 10 0 6 -9 10 -20 10 -11 0
-20 -4 -20 -10z"/>
<path d="M525 257 c-4 -10 -5 -21 -1 -24 10 -10 18 4 13 24 -4 17 -4 17 -12 0z"/>
<path d="M370 170 c0 -11 5 -20 10 -20 6 0 10 9 10 20 0 11 -4 20 -10 20 -5 0
-10 -9 -10 -20z"/>
<path d="M520 176 c0 -8 5 -18 10 -21 6 -3 10 3 10 14 0 12 -4 21 -10 21 -5 0
-10 -6 -10 -14z"/>
<path d="M410 160 c0 -5 9 -10 20 -10 11 0 20 5 20 10 0 6 -9 10 -20 10 -11 0
-20 -4 -20 -10z"/>
<path d="M460 160 c0 -5 9 -10 20 -10 11 0 20 5 20 10 0 6 -9 10 -20 10 -11 0
-20 -4 -20 -10z"/>
</g>
</svg>
