<?xml version="1.0" standalone="no"?>
<!DOCTYPE svg PUBLIC "-//W3C//DTD SVG 20010904//EN"
 "http://www.w3.org/TR/2001/REC-SVG-20010904/DTD/svg10.dtd">
<svg version="1.0" xmlns="http://www.w3.org/2000/svg"
 width="106.000000pt" height="102.000000pt" viewBox="0 0 106.000000 102.000000"
 preserveAspectRatio="xMidYMid meet">

<g transform="translate(0.000000,102.000000) scale(0.100000,-0.100000)"
fill="#000000" stroke="none">
<path d="M412 935 c-38 -32 -48 -74 -29 -112 14 -27 13 -30 -17 -65 -54 -62
-105 -255 -91 -345 5 -35 3 -43 -9 -43 -9 0 -16 1 -16 3 0 22 -52 352 -55 355
-3 3 -7 3 -10 1 -4 -5 41 -344 50 -366 3 -8 24 -13 55 -13 l50 0 0 -53 c0 -60
-5 -68 -85 -112 -27 -16 -52 -30 -54 -31 -1 -2 0 -7 4 -13 4 -7 28 4 65 29 32
22 62 40 65 40 4 0 5 -15 3 -32 -4 -44 16 -48 22 -4 l5 34 57 -39 c34 -22 60
-34 64 -28 3 6 4 12 3 13 -2 1 -32 19 -66 40 l-63 37 0 60 0 59 80 0 80 0 0
-100 c0 -88 2 -100 19 -110 31 -16 111 -13 117 5 10 25 -5 63 -26 70 -18 6
-20 15 -20 115 0 105 -1 109 -26 129 -21 16 -41 21 -89 21 l-63 0 15 67 c7 37
18 72 23 77 5 5 23 0 43 -13 43 -26 72 -27 132 -1 80 34 87 8 18 -62 -26 -26
-44 -51 -40 -55 4 -4 17 3 29 15 l22 22 28 -27 c27 -26 28 -26 48 -8 20 18 20
18 20 -123 l0 -142 -35 0 -35 0 0 -50 0 -51 123 3 122 3 3 48 3 47 -40 0 -41
0 0 192 0 192 37 38 37 38 -27 27 -27 27 37 38 c20 21 33 41 30 45 -4 4 -57
-42 -118 -103 -79 -79 -112 -105 -118 -96 -4 7 -6 24 -4 36 3 14 -2 29 -12 37
-39 32 -62 56 -67 70 -3 8 -8 11 -12 8 -4 -4 -1 -19 6 -33 13 -30 5 -40 -39
-52 -29 -8 -93 31 -93 57 0 10 5 19 10 19 6 0 22 11 35 25 57 56 12 165 -68
165 -23 0 -46 -9 -65 -25z m112 -16 c20 -16 26 -29 26 -59 0 -30 -6 -43 -26
-59 -37 -29 -70 -26 -105 8 -31 32 -35 50 -17 84 26 50 77 61 122 26z m-44
-178 c0 -17 69 -71 90 -71 7 0 34 8 61 17 37 13 51 15 60 6 19 -19 3 -40 -47
-62 -63 -28 -75 -27 -155 15 -38 20 -73 34 -76 30 -7 -6 9 -21 30 -28 4 -2 1
-30 -7 -63 -8 -33 -18 -75 -21 -92 l-7 -33 74 0 c106 -1 108 -3 108 -143 0
-112 1 -116 23 -119 14 -2 23 -11 25 -26 3 -22 1 -23 -45 -20 l-48 3 -5 105
-5 105 -110 3 c-89 2 -112 6 -122 19 -38 50 19 297 83 364 23 24 29 26 60 16
20 -6 34 -17 34 -26z m343 -143 c-92 -91 -92 -92 -113 -73 l-21 19 93 93 93
93 20 -20 20 -20 -92 -92z m27 -188 l0 -180 -30 0 -30 0 0 152 c0 151 0 152
27 180 15 15 28 28 30 28 2 0 3 -81 3 -180z m78 -227 l-3 -28 -102 -3 -103 -3
0 31 0 30 106 0 105 0 -3 -27z"/>
</g>
</svg>
