<?xml version="1.0" standalone="no"?>
<!DOCTYPE svg PUBLIC "-//W3C//DTD SVG 20010904//EN"
 "http://www.w3.org/TR/2001/REC-SVG-20010904/DTD/svg10.dtd">
<svg version="1.0" xmlns="http://www.w3.org/2000/svg"
 width="107.000000pt" height="97.000000pt" viewBox="0 0 107.000000 97.000000"
 preserveAspectRatio="xMidYMid meet">

<g transform="translate(0.000000,97.000000) scale(0.100000,-0.100000)"
fill="#000000" stroke="none">
<path d="M242 854 c-12 -8 -22 -10 -22 -5 0 6 -4 11 -10 11 -5 0 -10 -16 -10
-35 0 -19 5 -35 10 -35 6 0 10 7 10 17 0 15 1 15 18 0 23 -21 36 -22 28 -2 -5
13 34 15 309 15 275 0 314 -2 309 -15 -7 -18 7 -20 24 -3 8 8 15 8 27 -2 13
-11 15 -8 15 24 0 20 -4 36 -10 36 -5 0 -10 -5 -10 -10 0 -6 -12 -2 -27 7 -26
17 -27 17 -20 0 6 -16 -13 -17 -308 -17 -275 0 -314 2 -309 15 8 19 4 19 -24
-1z"/>
<path d="M130 751 c0 -5 6 -11 13 -14 10 -4 10 -7 0 -18 -18 -18 -16 -32 2
-25 13 5 15 -29 15 -269 0 -240 -2 -274 -15 -269 -17 7 -19 -4 -5 -26 5 -9 5
-19 -2 -27 -8 -10 -3 -13 26 -13 20 0 36 5 36 10 0 6 -5 10 -12 10 -6 0 -4 7
5 18 21 23 22 36 2 28 -13 -5 -15 29 -15 269 0 249 1 274 16 268 15 -5 15 -3
-1 20 -10 16 -13 27 -6 27 6 0 11 5 11 10 0 6 -16 10 -35 10 -19 0 -35 -4 -35
-9z"/>
<path d="M390 644 c-102 -64 -186 -117 -188 -119 -2 -2 6 -21 17 -44 15 -28
26 -39 36 -35 13 5 15 -18 15 -175 l0 -181 305 0 305 0 0 181 c0 154 2 180 14
176 14 -6 56 47 56 70 0 7 -361 243 -373 243 -1 0 -85 -52 -187 -116z m382
-28 c152 -95 156 -99 146 -122 -7 -15 -17 -23 -25 -20 -8 3 -80 47 -160 98
-81 50 -152 91 -157 91 -6 0 -80 -44 -165 -97 -140 -88 -156 -95 -170 -81 -11
11 -13 20 -6 31 6 9 84 62 175 119 146 91 167 101 185 91 11 -7 91 -57 177
-110z m-145 0 l36 -25 -34 -20 c-41 -25 -60 -26 -99 -6 -38 20 -38 28 3 54 41
26 50 26 94 -3z m-104 -65 c45 -21 48 -24 33 -40 -20 -22 -21 -35 -1 -27 12 4
15 -5 15 -54 0 -48 -3 -60 -16 -60 -19 0 -14 -20 9 -34 13 -8 21 -6 34 8 13
13 15 20 6 23 -8 3 -13 24 -13 58 0 34 5 55 13 58 9 3 7 10 -6 24 -18 20 -17
21 14 32 18 6 41 18 50 27 16 15 24 12 106 -39 l88 -54 3 -182 2 -181 -95 0
-95 0 0 100 0 100 -90 0 -90 0 0 -100 0 -100 -100 0 -100 0 0 178 0 179 88 56
c48 30 89 55 92 53 3 -1 27 -12 53 -25z m127 -351 l0 -90 -75 0 -75 0 0 90 0
90 75 0 75 0 0 -90z"/>
<path d="M739 283 c-11 -13 -11 -17 -1 -20 6 -3 12 -20 12 -39 0 -21 -4 -33
-10 -29 -15 9 -12 -8 4 -30 14 -19 15 -19 35 -1 20 18 20 43 0 31 -5 -4 -9 10
-9 29 0 27 4 36 17 36 14 0 14 2 -2 20 -22 24 -29 25 -46 3z"/>
<path d="M322 248 c-18 -18 -15 -36 8 -48 16 -9 20 -8 20 5 0 10 10 15 35 15
26 0 33 -3 29 -15 -8 -21 9 -19 30 3 15 18 15 20 -5 38 -16 14 -23 15 -26 7
-5 -15 -63 -18 -63 -3 0 14 -13 13 -28 -2z"/>
</g>
</svg>
