<?xml version="1.0" standalone="no"?>
<!DOCTYPE svg PUBLIC "-//W3C//DTD SVG 20010904//EN"
 "http://www.w3.org/TR/2001/REC-SVG-20010904/DTD/svg10.dtd">
<svg version="1.0" xmlns="http://www.w3.org/2000/svg"
 width="97.000000pt" height="90.000000pt" viewBox="0 0 97.000000 90.000000"
 preserveAspectRatio="xMidYMid meet">

<g transform="translate(0.000000,90.000000) scale(0.100000,-0.100000)"
fill="#000000" stroke="none">
<path d="M129 731 l-29 -29 0 -262 c0 -160 4 -269 10 -281 25 -46 48 -49 400
-49 352 0 375 3 400 49 6 12 10 121 10 281 l0 262 -29 29 c-25 24 -38 29 -79
29 -59 0 -62 -5 -62 -97 0 -51 -4 -69 -17 -79 -17 -13 -17 -13 0 -14 15 0 17
-13 17 -124 0 -68 3 -131 6 -140 4 -11 19 -16 49 -16 60 0 95 -29 95 -80 0
-30 -6 -43 -26 -59 -26 -20 -38 -21 -366 -21 l-339 0 -24 25 c-56 55 -15 135
68 135 32 0 47 5 51 16 3 9 6 71 6 139 0 120 1 124 23 128 l22 4 -22 8 c-21 7
-23 14 -23 75 0 95 -3 100 -62 100 -41 0 -54 -5 -79 -29z m121 -206 l0 -215
-30 0 c-17 0 -46 -7 -65 -14 l-35 -15 0 206 c0 198 1 208 22 230 16 17 32 23
65 23 l43 0 0 -215z m630 193 c19 -20 20 -34 20 -229 l0 -208 -27 15 c-16 7
-45 14 -65 14 l-38 0 0 215 0 215 45 0 c33 0 50 -6 65 -22z"/>
<path d="M551 615 c-29 -52 -54 -95 -55 -95 -2 0 -16 18 -31 40 -26 37 -31 40
-75 40 l-48 0 -7 -50 -7 -50 69 -87 c103 -131 104 -131 221 51 93 146 97 157
86 215 -6 29 -9 31 -53 31 l-47 0 -53 -95z m131 61 c4 -6 8 -19 8 -28 0 -14
-9 -18 -42 -18 l-43 0 -54 -101 -53 -100 -30 40 c-27 37 -34 41 -74 41 -46 0
-49 4 -38 48 5 17 14 22 38 22 27 0 38 -8 65 -45 18 -25 35 -45 39 -45 4 0 32
45 62 100 30 55 62 101 70 103 19 4 43 -3 52 -17z m-4 -74 c-1 -4 -39 -65 -83
-135 -59 -94 -85 -127 -100 -126 -13 0 -38 24 -70 66 -63 83 -63 83 -26 83 24
0 36 -9 62 -45 17 -24 35 -42 40 -40 4 3 29 45 55 93 26 48 51 93 57 100 10
13 71 17 65 4z"/>
<path d="M332 385 c0 -16 2 -22 5 -12 2 9 2 23 0 30 -3 6 -5 -1 -5 -18z"/>
<path d="M680 391 c0 -12 5 -21 10 -21 6 0 10 6 10 14 0 8 -4 18 -10 21 -5 3
-10 -3 -10 -14z"/>
<path d="M327 290 c-3 -11 -1 -23 4 -26 5 -3 9 6 9 20 0 31 -6 34 -13 6z"/>
<path d="M680 285 c0 -15 4 -24 10 -20 6 3 10 12 10 20 0 8 -4 17 -10 20 -6 4
-10 -5 -10 -20z"/>
<path d="M380 220 c0 -5 9 -10 20 -10 11 0 20 5 20 10 0 6 -9 10 -20 10 -11 0
-20 -4 -20 -10z"/>
<path d="M490 220 c0 -5 9 -10 20 -10 11 0 20 5 20 10 0 6 -9 10 -20 10 -11 0
-20 -4 -20 -10z"/>
<path d="M605 220 c3 -5 12 -10 20 -10 8 0 17 5 20 10 4 6 -5 10 -20 10 -15 0
-24 -4 -20 -10z"/>
</g>
</svg>
