<svg width="93" height="111" viewBox="0 0 93 111" fill="none" xmlns="http://www.w3.org/2000/svg">
<path d="M26.9248 0.979614C17.5915 3.37962 11.7248 13.2463 11.5915 26.4463C11.5915 35.6463 12.7915 38.8463 18.1248 44.313C25.4582 51.7796 27.4582 55.3796 26.5248 59.3796C25.5915 62.4463 24.3915 63.3796 18.9248 64.8463C14.9248 65.7796 11.1915 67.7796 9.32483 69.913C5.05817 74.8463 -0.941834 94.8463 0.124833 100.313C1.45817 107.38 4.3915 108.313 24.1248 108.046C34.3915 107.913 44.5248 108.446 48.5248 109.38C53.1915 110.58 59.5915 110.713 68.3915 110.046C81.0582 109.113 81.3248 108.98 86.3915 103.913C89.5915 100.713 91.5915 97.513 91.5915 95.513C91.5915 93.7796 91.9915 91.3796 92.3915 90.313C92.7915 89.2463 92.1248 87.3796 90.7915 86.1796C88.9248 84.1796 88.7915 82.9796 90.2582 75.6463C91.7248 67.7796 91.7248 67.3796 88.7915 65.113C84.7915 61.7796 83.1915 62.5796 81.4582 68.8463C79.7248 75.113 77.9915 75.6463 60.1248 75.913C47.1915 76.0463 46.2582 75.6463 46.2582 69.2463C46.2582 66.313 45.0582 66.0463 40.1248 68.313C36.6582 69.913 36.6582 69.913 37.5915 80.713L38.5248 91.6463L27.8582 90.9796C20.9248 90.5796 16.9248 90.8463 16.3915 91.913C15.7248 92.9796 17.8582 93.3796 23.5915 93.3796H31.8582L30.9248 98.9796C30.3915 102.18 29.8582 104.846 29.7248 104.98C29.4582 105.246 24.1248 105.513 17.5915 105.513C0.7915 105.913 -0.541834 103.513 5.5915 84.313C10.5248 68.5796 16.9248 64.0463 25.5915 70.0463C30.7915 73.513 34.2582 74.313 34.2582 72.0463C34.2582 71.2463 33.4582 70.713 32.5248 70.713C31.5915 70.713 29.4582 69.7796 27.8582 68.5796C25.1915 66.713 25.0582 66.313 26.9248 64.5796C27.9915 63.3796 28.9248 61.2463 28.9248 59.7796C28.9248 57.7796 29.4582 57.3796 31.3248 58.1796C32.5248 58.713 35.8582 59.3796 38.5248 59.7796C41.3248 60.0463 44.1248 61.113 45.0582 62.1796C46.1248 63.3796 49.4582 64.0463 55.5915 64.0463C64.7915 64.0463 67.3248 65.3796 69.3248 70.9796C70.1248 73.113 72.9248 74.4463 72.9248 72.713C72.9248 70.4463 68.5248 63.913 66.3915 62.713C64.9248 62.0463 60.1248 61.3796 55.7248 61.3796C51.3248 61.3796 47.3248 60.713 46.9248 60.0463C46.3915 59.2463 47.8582 56.5796 50.1248 54.0463C54.2582 49.2463 58.2582 38.4463 58.2582 31.7796C58.2582 28.9796 58.9248 28.0463 60.9248 28.0463C64.1248 28.0463 64.6582 22.5796 61.5915 20.0463C60.5248 19.113 57.9915 15.5129 55.9915 11.9129C50.7915 2.17962 39.3248 -2.08705 26.9248 0.979614ZM38.3915 6.84628C40.5248 9.11295 42.2582 12.1796 42.2582 13.5129C42.2582 16.4463 40.3915 16.8463 38.3915 14.313C37.5915 13.5129 35.1915 10.4463 32.7915 7.64629C28.7915 2.97961 28.7915 2.71295 31.5915 2.71295C33.1915 2.71295 36.2582 4.57962 38.3915 6.84628ZM44.5248 5.64629C45.9915 7.37962 47.7248 10.0463 48.2582 11.7796C49.3248 15.3796 51.5915 14.4463 50.6582 10.713C49.4582 5.91295 51.7248 7.91295 54.2582 13.9129C55.7248 17.113 57.8582 20.4463 58.9248 21.3796C63.1915 24.8463 60.9248 25.6463 47.9915 24.8463C40.7915 24.4463 32.5248 23.7796 29.4582 23.3796C25.8582 22.713 22.3915 23.113 19.1915 24.5796L14.2582 26.5796V22.5796C14.2582 17.9129 17.3248 10.1796 19.7248 8.71295C20.7915 8.04629 22.5248 8.97961 24.5248 11.3796C28.6582 16.1796 30.2582 14.5796 26.3915 9.37962C24.2582 6.44628 23.9915 5.37962 25.4582 5.37962C27.4582 5.37962 35.5915 13.9129 35.5915 16.0463C35.5915 16.8463 37.7248 17.3796 40.2582 17.3796C44.2582 17.3796 44.9248 16.9796 44.9248 14.1796C44.9248 12.4463 43.7248 9.51295 42.2582 7.64629C37.8582 2.04628 39.7248 0.446281 44.5248 5.64629ZM45.4582 27.513L55.8582 28.313L55.0582 35.6463C53.5915 48.5796 46.9248 57.3796 38.5248 57.3796C33.8582 57.3796 33.7248 57.2463 19.4582 41.9129C16.3915 38.5796 16.1248 34.9796 18.9248 33.9129C19.9915 33.3796 20.9248 31.7796 20.9248 30.1796C20.9248 25.7796 22.2582 25.113 28.9248 25.9129C32.2582 26.4463 39.5915 27.113 45.4582 27.513ZM18.2582 29.2463C18.2582 29.9129 17.3248 31.113 16.2582 32.0463C14.6582 33.3796 14.2582 33.3796 14.2582 31.7796C14.2582 30.713 14.6582 29.3796 15.1915 28.9796C16.3915 27.6463 18.2582 27.7796 18.2582 29.2463ZM88.9248 68.8463C88.9248 69.7796 87.7248 71.2463 86.2582 72.0463C83.4582 73.513 82.6582 71.913 84.3915 67.513C85.3248 65.2463 88.9248 66.1796 88.9248 68.8463ZM43.9915 75.113C43.5915 75.7796 42.2582 75.3796 41.0582 74.1796C39.1915 72.1796 39.1915 71.7796 40.9248 70.713C42.3915 69.7796 43.1915 70.1796 43.7248 71.7796C44.2582 72.9796 44.2582 74.5796 43.9915 75.113ZM86.9248 78.9796C85.7248 84.5796 85.1915 85.3796 82.9248 85.3796C77.9915 85.3796 76.3915 98.5796 80.9248 101.78C83.1915 103.38 83.3248 103.913 81.7248 105.246C79.4582 107.113 56.5248 108.713 49.7248 107.513C45.3248 106.713 45.0582 106.313 46.9248 104.58C51.0582 100.446 48.5248 89.3796 43.5915 89.3796C41.7248 89.3796 40.9248 88.4463 40.9248 86.313C40.9248 84.713 40.5248 82.1796 40.1248 80.713C39.4582 78.1796 39.9915 78.0463 55.1915 78.4463C65.4582 78.5796 73.4582 78.0463 78.2582 76.8463C82.2582 75.913 86.1248 74.9796 86.6582 74.8463C87.3248 74.713 87.3248 76.713 86.9248 78.9796ZM89.0582 92.713C88.5248 99.513 88.1248 100.046 84.1248 100.046C81.3248 100.046 80.9248 99.513 80.9248 94.713C80.9248 89.3796 83.4582 86.4463 87.5915 87.113C89.0582 87.3796 89.4582 88.8463 89.0582 92.713ZM45.5915 98.0463V103.38L39.3248 103.78C33.8582 104.18 32.9248 103.78 32.9248 101.78C32.9248 98.713 33.9915 97.2463 38.2582 94.4463C43.4582 90.8463 45.5915 91.913 45.5915 98.0463Z" fill="#ffffff"/>
<path d="M28.9248 32.0463C27.8582 32.713 27.3248 33.513 27.7248 33.913C28.6582 34.9796 34.2582 33.2463 34.2582 31.913C34.2582 30.313 31.4582 30.4463 28.9248 32.0463Z" fill="#ffffff"/>
<path d="M43.5915 32.0463C43.5915 32.713 45.0582 33.3796 46.9248 33.3796C48.7915 33.3796 50.2582 32.713 50.2582 32.0463C50.2582 31.2463 48.7915 30.713 46.9248 30.713C45.0582 30.713 43.5915 31.2463 43.5915 32.0463Z" fill="#ffffff"/>
<path d="M46.2582 37.3796C46.2582 38.8463 46.9248 40.0463 47.5915 40.0463C48.3915 40.0463 48.9248 38.8463 48.9248 37.3796C48.9248 35.9129 48.3915 34.7129 47.5915 34.7129C46.9248 34.7129 46.2582 35.9129 46.2582 37.3796Z" fill="#ffffff"/>
<path d="M31.5915 38.8463C31.5915 40.3129 32.2582 41.1129 32.9248 40.7129C33.7248 40.3129 34.2582 38.9796 34.2582 37.9129C34.2582 36.8463 33.7248 36.0463 32.9248 36.0463C32.2582 36.0463 31.5915 37.2463 31.5915 38.8463Z" fill="ffffff"/>
<path d="M39.5915 44.0463C39.5915 44.713 40.2582 45.3796 40.9248 45.3796C41.7248 45.3796 42.2582 44.713 42.2582 44.0463C42.2582 43.2463 41.7248 42.713 40.9248 42.713C40.2582 42.713 39.5915 43.2463 39.5915 44.0463Z" fill="ffffff"/>
<path d="M36.9248 50.7129C36.9248 51.3796 38.3915 52.0463 40.2582 52.0463C42.1248 52.0463 43.5915 51.3796 43.5915 50.7129C43.5915 49.9129 42.1248 49.3796 40.2582 49.3796C38.3915 49.3796 36.9248 49.9129 36.9248 50.7129Z" fill="ffffff"/>
</svg>
