<?xml version="1.0" standalone="no"?>
<!DOCTYPE svg PUBLIC "-//W3C//DTD SVG 20010904//EN"
 "http://www.w3.org/TR/2001/REC-SVG-20010904/DTD/svg10.dtd">
<svg version="1.0" xmlns="http://www.w3.org/2000/svg"
 width="92.000000pt" height="88.000000pt" viewBox="0 0 92.000000 88.000000"
 preserveAspectRatio="xMidYMid meet">

<g transform="translate(0.000000,88.000000) scale(0.100000,-0.100000)"
fill="#000000" stroke="none">
<path d="M685 719 c-9 -39 1 -50 14 -15 15 39 57 36 66 -4 8 -38 37 -55 66
-40 17 9 23 8 35 -7 17 -23 17 -24 0 -48 -17 -25 -5 -61 24 -70 32 -10 24 -59
-10 -63 -35 -4 -53 -34 -40 -66 8 -21 5 -28 -12 -40 -20 -14 -24 -14 -40 0
-12 12 -25 14 -45 8 -28 -8 -28 -8 -4 -12 14 -2 35 -11 47 -19 21 -14 26 -13
54 7 31 22 36 35 21 59 -15 23 -1 41 30 41 28 0 29 2 29 49 0 40 -3 50 -20 54
-24 6 -27 39 -5 57 15 13 12 24 -20 64 -13 17 -18 18 -41 7 -32 -14 -54 0 -54
34 0 23 -22 35 -67 35 -16 0 -23 -8 -28 -31z"/>
<path d="M141 684 l-31 -26 0 -269 0 -270 24 -24 c33 -33 61 -36 326 -33 l235
3 3 148 c2 100 -1 146 -8 142 -6 -4 -10 -60 -10 -141 l0 -135 -254 3 c-233 3
-256 5 -275 22 -14 13 -21 31 -21 56 0 50 33 80 86 80 22 0 45 5 52 12 8 8 12
54 12 140 l0 128 36 0 c20 0 33 4 29 10 -3 5 -19 7 -35 3 l-30 -5 0 75 c0 103
-2 107 -60 107 -38 0 -55 -6 -79 -26z m117 -206 l-3 -213 -46 -5 c-26 -3 -54
-12 -63 -19 -15 -12 -16 5 -16 198 0 198 1 212 20 231 14 14 33 20 65 20 l45
0 -2 -212z"/>
<path d="M512 698 c-7 -7 -12 -20 -12 -29 0 -23 -26 -31 -51 -16 -18 10 -23 8
-45 -17 -23 -26 -24 -30 -10 -45 23 -26 19 -50 -9 -61 -28 -10 -29 -17 -16
-54 7 -17 19 -26 38 -28 24 -3 29 -8 33 -42 4 -33 10 -41 34 -49 23 -8 31 -6
38 7 12 21 47 21 63 -1 11 -15 16 -15 45 -3 27 11 31 17 26 40 -6 32 9 50 40
50 25 0 28 3 38 43 5 23 3 29 -19 37 -28 11 -32 35 -10 60 13 14 11 19 -10 45
-21 26 -26 28 -44 18 -22 -14 -51 -8 -51 11 -1 33 -55 57 -78 34z m56 -34 c4
-27 46 -48 72 -34 23 13 50 -14 32 -32 -21 -21 -14 -66 11 -79 29 -16 28 -14
21 -33 -3 -9 -15 -16 -27 -16 -33 0 -57 -28 -51 -60 7 -33 -23 -51 -42 -26 -6
9 -24 16 -39 16 -15 0 -33 -7 -39 -16 -16 -21 -48 -7 -45 20 4 33 -19 66 -45
66 -39 0 -42 49 -4 50 14 0 20 48 8 70 -16 29 4 54 30 40 24 -13 70 7 70 30 0
36 43 40 48 4z"/>
<path d="M495 575 c-49 -48 -16 -125 52 -125 37 0 73 38 73 77 0 32 -42 73
-75 73 -14 0 -37 -11 -50 -25z m87 -12 c35 -31 10 -93 -38 -93 -48 0 -70 55
-37 92 20 22 51 23 75 1z"/>
<path d="M759 591 c39 -37 41 -78 5 -120 -28 -34 -10 -46 19 -13 48 53 19 162
-43 162 -7 0 2 -13 19 -29z"/>
</g>
</svg>
